<?xml version="1.0" encoding="utf-8"?>
<!-- Generator: Adobe Illustrator 28.2.0, SVG Export Plug-In . SVG Version: 6.00 Build 0)  -->
<svg version="1.1" id="Layer_1" xmlns="http://www.w3.org/2000/svg" xmlns:xlink="http://www.w3.org/1999/xlink" x="0px" y="0px"
	 viewBox="0 0 612 792" style="enable-background:new 0 0 612 792;" xml:space="preserve">
<style type="text/css">
	.st0{opacity:0.65;fill:#174CA1;stroke:#262262;stroke-miterlimit:10;}
	.st1{opacity:0.65;fill:#A3C8EA;stroke:#262262;stroke-miterlimit:10;}
</style>
<polygon class="st0" points="278.87,274.82 224.27,345.01 290.57,428.15 278.99,443.04 212.69,359.91 200.93,345.16 212.51,330.27 
	267.1,260.07 278.68,245.18 290.45,259.93 304.65,277.73 293.06,292.62 "/>
<polygon class="st0" points="409.08,342.44 397.5,357.33 342.22,428.41 330.64,443.3 318.88,428.55 330.46,413.66 385.74,342.59 
	319.15,259.08 330.72,244.2 397.32,327.7 "/>
<path class="st1" d="M345.33,328.75l-28.92-36.27l-11.76-14.75l-11.59,14.89l-29.19,37.53l-11.58,14.89l11.76,14.76l28.92,36.26
	l11.76,14.75l14.15,17.74l11.58-14.89l-14.15-17.75l29.19-37.53l11.58-14.89v-0.01L345.33,328.75z M304.55,381.17l-28.92-36.27
	l29.19-37.53l28.92,36.27L304.55,381.17z"/>
</svg>
